<svg width="26" height="25" viewBox="0 0 26 25" fill="none" xmlns="http://www.w3.org/2000/svg">
<path d="M10.01 2.27664C11.3264 -0.0465515 14.6736 -0.0465518 15.99 2.27664V2.27664C16.6968 3.52399 18.1037 4.20151 19.5196 3.97641V3.97641C22.1567 3.55715 24.2437 6.17406 23.2481 8.65178V8.65178C22.7136 9.9821 23.0611 11.5045 24.1198 12.4711V12.4711C26.0919 14.2715 25.347 17.5347 22.7892 18.3012V18.3012C21.4158 18.7128 20.4422 19.9336 20.3466 21.3641V21.3641C20.1685 24.0284 17.1528 25.4807 14.9588 23.9587V23.9587C13.7808 23.1416 12.2192 23.1416 11.0412 23.9587V23.9587C8.84715 25.4807 5.83147 24.0284 5.6534 21.3641V21.3641C5.55779 19.9336 4.58419 18.7128 3.21084 18.3012V18.3012C0.652958 17.5347 -0.0918528 14.2715 1.88015 12.4711V12.4711C2.93895 11.5045 3.28642 9.9821 2.75189 8.65178V8.65178C1.75634 6.17406 3.84325 3.55715 6.48038 3.97641V3.97641C7.89629 4.20151 9.30317 3.52399 10.01 2.27664V2.27664Z" fill="#FF7A00"/>
</svg>
